<svg baseProfile="tiny" xmlns="http://www.w3.org/2000/svg" width="96" height="20" viewBox="0 0 96 20" overflow="inherit"><path d="M18.55 19.797H0V.02h3.273v16.788H18.55v2.989zM43.379 9.608c2.252.765 3.378 2.43 3.378 5 0 3.459-2.494 5.189-7.482 5.189H23.519V.02h15.984c2.003 0 3.58.492 4.727 1.475 1.148.983 1.722 2.294 1.722 3.933 0 1.802-.858 3.197-2.573 4.18zm-3.826-1.312c.91 0 1.671-.259 2.281-.777.612-.518.916-1.149.916-1.895 0-.8-.272-1.435-.82-1.908-.545-.473-1.293-.708-2.24-.708H26.791v5.288h12.762zm-.259 8.512c2.73 0 4.096-.888 4.096-2.667 0-1.905-1.192-2.856-3.577-2.856H26.791v5.523h12.503zm33.213 2.989H51.8V.02h20.184v2.988H55.072v5.05H66.66v2.988H55.072v5.762h17.435v2.989zm23.493 0H77.451V.02h3.274v16.788H96v2.989zM15.5 0v4.391c0 1.538 1.269 2.792 2.829 2.8l.23.001V0H15.5z" fill="#FFF"/></svg>