<?xml version="1.0" encoding="utf-8"?>
<!-- Generator: Adobe Illustrator 16.0.0, SVG Export Plug-In . SVG Version: 6.00 Build 0)  -->
<!DOCTYPE svg PUBLIC "-//W3C//DTD SVG 1.1//EN" "http://www.w3.org/Graphics/SVG/1.1/DTD/svg11.dtd">
<svg version="1.1" id="Capa_1" xmlns="http://www.w3.org/2000/svg" xmlns:xlink="http://www.w3.org/1999/xlink" x="0px" y="0px"
	 width="82.332px" height="62.19px" viewBox="0 0 82.332 62.19" enable-background="new 0 0 82.332 62.19" xml:space="preserve">
<path fill="#FFFFFF" d="M29.11,33.43c0.008-0.015-0.016-0.122-0.047-0.235c-0.401-1.779-2.479-13.302,9.114-22.641
	c0,0,7.976-6.116,13.632-3.277c-1.143-0.838-2.973-2.164-3.826-2.811c-1.955-1.492-3.348-1.516-3.348-1.516
	c-3.126-0.186-5.495,1.021-5.495,1.021c-9.95,4.219-11.188,15.177-11.188,15.177c-1.153,7.103,0.118,11.599,1.004,13.977
	C28.961,33.137,29.085,33.461,29.11,33.43"/>
<path fill="#FFFFFF" d="M51.89,38.209c0.004-0.002,0.004-0.005,0.01-0.01C51.901,38.191,51.899,38.202,51.89,38.209"/>
<path fill="#FFFFFF" d="M51.89,38.209c0,0.006,0,0.01,0,0.011C51.853,38.28,51.874,38.237,51.89,38.209"/>
<path fill="#FFFFFF" d="M48.503,7.831c-0.166,0.857-0.615,2.599-4.109,4.726c-0.59,0.361-0.797,0.408-1.205,0.681
	c-0.34,0.226-1.067,0.875-0.225,1.71c0.396,0.393,3.697,2.543,5.693,3.961c0.227-0.191,0.51-0.441,0.641-0.557
	c0.074-0.066,0.063-0.054,0.084-0.075c0.762-0.7,1.65-1.759,2.498-3.221c0.939-1.656,1.484-3.568,0.656-5.199
	C52.536,9.858,51.751,7.9,48.503,7.831"/>
<path fill="#FFFFFF" d="M48.216,19.406c-1.867-1.171-2.871-1.702-6.239-3.4c0,0-0.957-0.424-1.033-0.966c0,0-0.008-0.016-0.01-0.048
	c-0.005,0.301-0.128,4.889-0.732,8.475c-0.021,0.154-0.101,0.5-0.029,0.992c0.111,0.732,0.572,1.202,0.787,1.429
	c0.322,0.343,2.04,1.773,6.114,4.579c1.807,1.246,4.742,3.709,4.943,6.469c0.004,0.037,0.018,0.511-0.049,0.799
	c-0.035,0.234-0.109,0.471-0.115,0.48c-0.002,0.02-0.016,0.059-0.016,0.059c0,0.004,0.004,0.019,0.012,0.011
	c0.014-0.002,0.02-0.032,0.035-0.063c0.01-0.016,0.025-0.041,0.049-0.076c0.121-0.229,2.287-5.037,2.689-6.088
	c0.24-0.629,2.018-3.679-1.287-8.113C53.335,23.942,51.878,21.838,48.216,19.406"/>
<path fill="#FFFFFF" d="M49.69,34.31c-0.102-0.151-0.203-0.318-0.322-0.484c0,0-5.248,4.373-12.605,1.029
	c0,0-5.733-2.406-6.572-8.912c-0.054,0.277-0.104,0.562-0.146,0.845c-1.581,9.995,5.974,15.481,13.232,15.319
	C48.79,41.979,52.302,38.294,49.69,34.31"/>
<g>
	<polygon fill="#FFFFFF" points="16.903,54.858 20.821,54.858 20.821,53.181 16.903,53.181 16.903,50.355 21.703,50.355 
		21.703,48.675 14.903,48.675 14.903,59.437 21.953,59.437 21.953,57.758 16.903,57.758 	"/>
	<path fill="#FFFFFF" d="M65.743,54.896v-0.037c1.156-0.454,1.854-1.653,1.854-2.931c0-1.438-0.697-2.461-1.795-2.944
		c-0.479-0.218-1.021-0.309-2.211-0.309h-3.766v10.767h1.998v-4.013h2.133l2.193,4.013h2.221l-2.264-4.013
		C65.892,55.042,65.743,54.896,65.743,54.896 M63.835,53.722h-2.012v-3.363h1.734c1.563,0,2.008,0.641,2.008,1.67
		C65.565,53.098,64.901,53.722,63.835,53.722"/>
	<path fill="#FFFFFF" d="M9.885,53.786v-0.041c0.84-0.434,1.329-1.295,1.329-2.296c0-1.774-1.407-2.774-3.381-2.774H3.687v10.767
		h4.189c2.031,0,3.792-0.972,3.792-3.124C11.667,55.223,11.097,54.138,9.885,53.786 M5.654,50.341h2.148
		c0.929,0,1.399,0.566,1.399,1.342c0,0.785-0.499,1.389-1.362,1.389H5.654V50.341z M8.039,57.79H5.654v-3.141h2.385
		c1.007,0,1.598,0.654,1.598,1.557C9.636,57.127,9.06,57.79,8.039,57.79"/>
	<polygon fill="#FFFFFF" points="27.306,48.675 25.313,48.675 25.313,59.441 32.269,59.441 32.269,57.758 27.306,57.758 	"/>
	<path fill="#FFFFFF" d="M75.788,48.675h-4.463v10.767h1.998v-3.717h2.465c2.063,0,3.492-1.455,3.492-3.546
		C79.28,50.083,77.851,48.675,75.788,48.675 M75.415,54.028h-2.092v-3.673h2.125c1.133,0,1.807,0.712,1.807,1.823
		C77.255,53.3,76.581,54.028,75.415,54.028"/>
	<path fill="#FFFFFF" d="M39.477,57.834c-2.293,0-3.701-1.805-3.701-3.849c0-2.003,1.362-3.699,3.686-3.699
		c1.742,0,3.001,1.135,3.001,1.135l0.95-1.464c0,0-1.374-1.458-4.047-1.458c-3.238,0-5.645,2.393-5.645,5.52
		c0,3.162,2.32,5.607,5.678,5.607c2.796,0,4.315-1.746,4.315-1.746l-1.057-1.406C42.657,56.474,41.376,57.834,39.477,57.834"/>
	<path fill="#FFFFFF" d="M51.284,48.499c-3.236,0-5.682,2.402-5.682,5.486c0,3.172,2.445,5.641,5.682,5.641
		c3.232,0,5.678-2.469,5.678-5.641C56.962,50.901,54.517,48.499,51.284,48.499 M51.284,57.834c-2.014,0-3.619-1.638-3.619-3.849
		c0-2.121,1.605-3.699,3.619-3.699c2.008,0,3.617,1.578,3.617,3.699C54.901,56.196,53.292,57.834,51.284,57.834"/>
</g>
</svg>
