<?xml version="1.0" encoding="UTF-8"?>
<svg width="128px" height="128px" viewBox="0 0 128 128" version="1.1" xmlns="http://www.w3.org/2000/svg" xmlns:xlink="http://www.w3.org/1999/xlink">
    <!-- Generator: Sketch 49.3 (51167) - http://www.bohemiancoding.com/sketch -->
    <title>Actividad</title>
    <desc>Created with Sketch.</desc>
    <defs>
        <polygon id="path-1" points="44.9505272 59.3918532 0 59.3918532 0 0 89.9010543 0 89.9010543 59.3918532 44.9505272 59.3918532"></polygon>
    </defs>
    <g id="Actividad" stroke="none" stroke-width="1" fill="none" fill-rule="evenodd">
        <g id="Page-1" transform="translate(19.000000, 34.000000)">
            <mask id="mask-2" fill="white">
                <use xlink:href="#path-1"></use>
            </mask>
            <g id="Clip-2"></g>
            <path d="M3.20325501,50.4812104 L10.8861789,56.1797724 L26.3372203,35.2910205 C26.5462991,35.0064835 26.8634019,34.8169926 27.2121068,34.7659804 C27.5656182,34.712923 27.9214126,34.8078489 28.207514,35.0122584 L54.0881015,54.2090673 L79.6118131,19.7211271 C79.8206515,19.4351463 80.1419599,19.2418054 80.486219,19.1907933 C80.8420134,19.1361718 81.1940828,19.2308571 81.4817463,19.4446509 L87.1143765,23.6609732 L86.2740961,3.03726797 L66.2797971,8.05931747 L71.6852043,12.107444 C72.2757917,12.552116 72.3967931,13.3846727 71.9614526,13.9756436 L52.892988,39.7518161 C52.6834286,40.0363532 52.3689693,40.2274081 52.0176208,40.2803453 C51.6689159,40.3299137 51.3089159,40.2389581 51.02702,40.0287736 L25.1411455,20.8299194 L3.20325501,50.4812104 Z M11.1641095,59.3918532 C10.878008,59.3918532 10.5977944,59.2950023 10.3672069,59.124641 L0.541826435,51.8367619 C-0.0528464619,51.3948572 -0.1756502,50.557488 0.261132176,49.9644718 L23.7899439,18.1620082 C24.0001041,17.8755462 24.3161255,17.689785 24.6668732,17.6367275 C25.0183418,17.5873997 25.3724539,17.6745054 25.6602377,17.8828852 L51.5461121,37.0798144 L69.024016,13.4527691 L62.4307049,8.51806585 C62.0155514,8.21103048 61.8208919,7.68815599 61.9189426,7.18356886 C62.0216796,6.67573333 62.4073939,6.27810328 62.9071402,6.14900886 L87.2184352,0.0416278359 C87.6100374,-0.0588324039 88.0235087,0.0245435796 88.3442163,0.266851272 C88.6680481,0.505669926 88.8634286,0.882846994 88.8786889,1.28444733 L89.9002911,26.3598044 C89.9175941,26.878829 89.6395434,27.3600756 89.1849773,27.600699 C88.7247637,27.8413223 88.1740694,27.7978898 87.7613191,27.4872451 L80.9591696,22.3914445 L55.4431482,56.8773394 C55.0040828,57.4743259 54.1636822,57.5951188 53.5733351,57.1594702 L27.6896235,37.9632629 L12.2373805,58.8480445 C12.0220534,59.1321003 11.7054312,59.3196662 11.3556449,59.3765736 C11.2953244,59.3865595 11.2305581,59.3918532 11.1641095,59.3918532 L11.1641095,59.3918532 Z" id="Fill-1" fill="#FEFEFE" mask="url(#mask-2)"></path>
        </g>
    </g>
</svg>