<?xml version="1.0" encoding="UTF-8"?>
<svg width="128px" height="128px" viewBox="0 0 128 128" version="1.1" xmlns="http://www.w3.org/2000/svg" xmlns:xlink="http://www.w3.org/1999/xlink">
    <!-- Generator: Sketch 49.3 (51167) - http://www.bohemiancoding.com/sketch -->
    <title>Capitalizacion</title>
    <desc>Created with Sketch.</desc>
    <defs>
        <polygon id="path-1" points="0 0.0530279241 0 61.7213077 53.9775909 61.7213077 53.9775909 0.0530279241 0 0.0530279241"></polygon>
    </defs>
    <g id="Capitalizacion" stroke="none" stroke-width="1" fill="none" fill-rule="evenodd">
        <g id="Page-1" transform="translate(28.000000, 19.000000)">
            <path d="M29.5693643,89.9469863 C29.2108702,89.9469863 28.8514264,89.8134563 28.5802055,89.5419389 L17.1460948,78.1239831 L19.1188096,76.1434141 L29.5693643,86.5842677 L59.5005371,56.691275 C60.0417445,56.1420759 60.9291005,56.1420759 61.472967,56.691275 L66.8959622,62.1024658 L68.2504527,31.1367756 L37.25092,32.498156 L42.6671726,37.9134247 C43.2174967,38.4520969 43.2174967,39.3383456 42.6671726,39.8831823 L34.665014,47.8749737 L32.6861265,45.9029399 L39.7010255,38.895079 L33.0237282,32.2288198 C32.6350351,31.8385669 32.5115802,31.2514331 32.7097728,30.7339094 C32.9151828,30.2227397 33.3977017,29.8708957 33.9515395,29.8497471 L69.6557496,28.2827608 C70.0503306,28.2573446 70.4330409,28.4142993 70.7090101,28.6898946 C70.9892528,28.9655848 71.13379,29.3450263 71.1169812,29.7352792 L69.54521,65.3910221 C69.5242226,65.9424974 69.1738006,66.4322339 68.6579489,66.6315806 C68.1438066,66.8372813 67.5492287,66.7099157 67.1630996,66.3177661 L60.4859923,59.6490411 L30.5565289,89.5419389 C30.2827439,89.8134563 29.9240598,89.9469863 29.5693643,89.9469863" id="Fill-1" fill="#FEFEFE"></path>
            <g id="Group-5" transform="translate(0.000000, 0.041823)">
                <mask id="mask-2" fill="white">
                    <use xlink:href="#path-1"></use>
                </mask>
                <g id="Clip-4"></g>
                <path d="M1.40250497,61.7213077 C1.03327977,61.7213077 0.67640006,61.5729831 0.413441061,61.3100011 C0.134717817,61.0321296 -0.0139978897,60.6525933 0.0010066325,60.2627197 L1.57239795,24.6046059 C1.59765873,24.0533203 1.94646639,23.565765 2.45965903,23.3661338 C2.97778987,23.162804 3.56629002,23.28998 3.95878173,23.6823193 L10.6365538,30.3485785 L40.5677266,0.460232877 C41.1152967,-0.0827070601 41.9988541,-0.0827070601 42.5465191,0.460232877 L53.9775909,11.8781886 L52.0012674,13.8543952 L41.5568854,3.42036986 L11.6239084,33.3086207 C11.0801369,33.8579146 10.1927808,33.8579146 9.64900935,33.3086207 L4.22658396,27.8974299 L2.86763009,58.8611286 L33.8752349,57.5016449 L28.456798,52.086471 C27.9047645,51.5416344 27.9047645,50.6573772 28.456798,50.1145321 L36.5036853,42.0807281 L38.4782994,44.0568398 L31.4189566,51.1026354 L38.0966337,57.7734468 C38.4864664,58.1654067 38.6124854,58.7529199 38.410779,59.2660811 C38.210877,59.7791475 37.7269337,60.1288103 37.1705318,60.1523298 L1.46394754,61.7213077 L1.40250497,61.7213077 Z" id="Fill-3" fill="#FEFEFE" mask="url(#mask-2)"></path>
            </g>
        </g>
    </g>
</svg>