<?xml version="1.0" encoding="UTF-8"?>
<svg width="128px" height="128px" viewBox="0 0 128 128" version="1.1" xmlns="http://www.w3.org/2000/svg" xmlns:xlink="http://www.w3.org/1999/xlink">
    <!-- Generator: Sketch 49.3 (51167) - http://www.bohemiancoding.com/sketch -->
    <title>Ciclo Nuevas</title>
    <desc>Created with Sketch.</desc>
    <defs>
        <polygon id="path-1" points="32.5653111 88.3435761 0 88.3435761 0 0.079921547 32.5653111 0.079921547 65.1306223 0.079921547 65.1306223 88.3435761"></polygon>
    </defs>
    <g id="Ciclo-Nuevas" stroke="none" stroke-width="1" fill="none" fill-rule="evenodd">
        <g id="Page-1" transform="translate(31.000000, 19.000000)">
            <g id="Group-3" transform="translate(0.000000, 0.007896)">
                <mask id="mask-2" fill="white">
                    <use xlink:href="#path-1"></use>
                </mask>
                <g id="Clip-2"></g>
                <path d="M48.4668757,85.5873793 C40.7963612,85.5873793 34.5590472,79.3584992 34.5590472,71.7059453 C34.5590472,64.0527773 40.7963612,57.8260027 48.4668757,57.8260027 C56.1344017,57.8260027 62.3707489,64.0527773 62.3707489,71.7059453 C62.3707489,79.3584992 56.1344017,85.5873793 48.4668757,85.5873793 L48.4668757,85.5873793 Z M34.447246,13.8765774 L34.447246,13.8680991 L34.4476373,13.8765774 L34.447246,13.8765774 Z M32.9014532,45.347977 C30.2980312,46.5998766 27.6815129,46.436612 24.5547697,44.8202843 C18.507219,41.9904825 15.3857494,35.3698026 15.9404488,26.6043126 C23.8828196,26.7931942 29.5082152,24.4731883 33.1858784,19.4575191 C33.6522442,18.8234105 33.9883511,18.2645738 34.3060002,17.7002978 C36.0334701,21.2936969 38.1743056,24.775855 41.6813665,26.7988966 C41.9236025,36.0733929 38.8904664,42.4854522 32.9014532,45.347977 L32.9014532,45.347977 Z M9.45202156,23.5365885 C10.0615669,14.5318603 12.2905602,5.25683756 24.2241123,4.72546016 L25.5188796,4.56254653 L25.9116782,4.36638344 C27.4192371,3.36003869 29.2272179,2.85094458 31.285433,2.85094458 C35.4753428,2.85094458 40.1812786,5.04251446 42.9918669,8.3136832 C47.0496719,13.0250189 48.6762393,17.6907353 48.6213934,24.4295868 C48.6213934,24.5613565 48.6670104,27.3576456 48.6522442,29.4450806 C48.6356323,31.6642853 48.3125337,37.4167066 48.1216278,40.647432 L48.1108168,40.903953 C48.1108168,44.1747708 49.9502637,46.8356057 52.9870034,48.1058406 C51.3918141,48.6391481 48.8892066,49.0021726 46.5096508,49.0021726 L44.8536388,49.0021726 C43.2307629,48.1209301 41.6224774,47.3803179 40.0435486,46.6820791 C39.5000117,46.436612 38.8314895,46.1375423 38.5011836,45.9676103 C38.3485996,45.6852091 38.2093754,45.3901749 38.1137466,45.1426901 C42.6800188,41.0195805 44.7988808,34.5448824 44.4093343,25.8973008 C44.3852514,25.3969797 44.0937947,24.945787 43.6381519,24.7261124 C39.8633658,22.8715114 37.8954178,19.0123798 35.7121294,14.1667302 C35.5068089,13.7049223 35.0644381,13.3951496 34.574165,13.3569872 L34.447246,13.3514603 C33.9883511,13.3514603 33.549584,13.5913126 33.2960096,13.9853057 C32.798705,14.7513594 32.4533693,15.3762564 32.1100551,15.9774665 C31.7447674,16.6318406 31.4251846,17.1983098 30.9588187,17.8336466 C27.9810559,21.8892923 23.3544006,23.8592575 16.8085785,23.8592575 C16.1461209,23.8592575 15.4594047,23.8428521 14.7762041,23.802672 L14.6496367,23.7972328 C13.9665241,23.7972328 13.3751729,24.3412432 13.3075823,25.0339551 C12.4445506,33.4841454 14.7726005,40.7133169 19.7060061,44.9338939 C19.5684519,45.4156165 19.3516173,46.0995554 19.0983945,46.784898 C18.7309094,46.9442147 18.1252315,47.1637139 17.5173561,47.3858449 C16.6562581,47.6991268 15.6321165,48.0803991 14.5486464,48.5235207 L12.0994785,48.5128177 C9.50695535,48.5128177 6.54378296,48.0970677 4.69686511,47.5124385 C7.66759639,46.2221135 9.46661198,43.5814564 9.46661198,40.3579248 L9.45202156,23.5365885 Z M32.1927634,75.2079303 L6.97710067,75.2079303 C6.66841674,69.3635685 6.65400211,58.3664162 8.72469823,55.5533708 C10.7736845,52.7753294 15.58439,51.0195995 18.4651178,49.971671 C20.0384214,49.3940602 20.6921774,49.1471017 21.1213641,48.7746901 L21.2829134,48.6371303 L21.499748,48.2288374 C21.5878179,48.0104787 21.8375249,47.3437347 22.0763331,46.6160188 C22.5204617,46.8819268 22.9318938,47.1016891 23.3356791,47.2869738 C27.1104653,49.2456219 30.7663307,49.4306434 34.0982187,47.8309842 C34.6858784,47.5490217 35.275208,47.2210012 35.860934,46.8452559 C36.0590472,47.2610936 36.2464374,47.5799902 36.3237841,47.7047415 L36.5588128,47.9759133 C36.9479198,48.3091976 37.5869975,48.6025649 39.0007735,49.231322 C41.5655221,50.3747002 46.2159967,52.4380096 48.5018575,55.0734029 L48.4668757,55.0734029 C39.2760577,55.0734029 31.7996133,62.5337415 31.7996133,71.7059453 C31.7996133,72.8493235 31.9282023,74.0275303 32.1927634,75.2079303 L32.1927634,75.2079303 Z M51.911268,55.4398489 C51.6616489,54.8096004 51.3970878,54.3127884 51.1145084,53.9208131 C50.5471522,53.1582685 49.8145553,52.4089711 48.8855151,51.6519535 C52.2453533,51.3878001 56.6810149,50.5066453 57.2595336,47.7340432 L57.5679538,46.2607144 L56.0714696,46.0848169 C52.9630962,45.7237224 50.8686687,43.6640976 50.8686687,40.9901034 C50.8722724,40.903953 51.3918141,32.4067398 51.4122056,29.4577136 C51.4228407,27.307903 51.3787179,24.4144096 51.3787179,24.4144096 C51.4448143,16.974161 49.6199578,11.7882966 45.0848881,6.52330018 C41.7139752,2.60907443 36.3146432,0.079921547 31.326128,0.079921547 C28.8309914,0.079921547 26.5891656,0.690430927 24.6578694,1.89618476 L23.9893472,1.9838265 C9.9056428,2.60547752 7.35355092,13.7581741 6.69777335,23.446929 L6.7073538,40.3579248 C6.7073538,43.0921892 4.61609047,45.1740972 1.50209188,45.5366831 L-1.75788117e-05,45.7125807 L0.312445799,47.1859972 C0.899753897,49.971671 5.76715106,50.8746704 9.50141802,51.1551416 C8.21456112,52.0296289 7.22496191,52.9438577 6.49957225,53.9208131 C3.05895933,58.6047772 4.25238486,75.9443315 4.30573655,76.681259 L4.39565217,77.9585124 L33.0427868,77.9585124 C35.5840677,84.1834446 41.7341908,88.3435761 48.4668757,88.3435761 C57.6577816,88.3435761 65.1306223,80.8796405 65.1306223,71.7059453 C65.1306223,63.8510872 59.5855619,57.0562643 51.911268,55.4398489 L51.911268,55.4398489 Z" id="Fill-1" fill="#FEFEFE" mask="url(#mask-2)"></path>
            </g>
            <path d="M49.8441052,70.3357426 L49.8441052,63.7566465 C49.8441052,62.9996289 49.2232216,62.382452 48.4668932,62.382452 C47.7048518,62.382452 47.0863413,62.9996289 47.0863413,63.7566465 L47.0863413,70.3357426 L40.4896285,70.3357426 C39.7311907,70.3357426 39.114526,70.9567795 39.114526,71.7137971 C39.114526,72.4738852 39.7311907,73.0919393 40.4896285,73.0919393 L47.0863413,73.0919393 L47.0863413,79.6725269 C47.0863413,80.4292813 47.7048518,81.0486513 48.4668932,81.0486513 C49.2232216,81.0486513 49.8441052,80.4292813 49.8441052,79.6725269 L49.8441052,73.0919393 L56.4390601,73.0919393 C57.1989921,73.0919393 57.8197879,72.4738852 57.8197879,71.7137971 C57.8197879,70.9567795 57.1989921,70.3357426 56.4390601,70.3357426 L49.8441052,70.3357426 Z" id="Fill-4" fill="#FEFEFE"></path>
        </g>
    </g>
</svg>