<?xml version="1.0" encoding="UTF-8"?>
<svg width="128px" height="128px" viewBox="0 0 128 128" version="1.1" xmlns="http://www.w3.org/2000/svg" xmlns:xlink="http://www.w3.org/1999/xlink">
    <!-- Generator: Sketch 49.3 (51167) - http://www.bohemiancoding.com/sketch -->
    <title>Cobranza</title>
    <desc>Created with Sketch.</desc>
    <defs></defs>
    <g id="Cobranza" stroke="none" stroke-width="1" fill="none" fill-rule="evenodd">
        <g id="Page-1" transform="translate(19.000000, 32.000000)" fill="#FEFEFE">
            <g id="Group-3" transform="translate(0.000000, 0.101155)">
                <path d="M59.3361707,60.1825581 C69.9883659,55.0946357 77.3789756,44.2324523 77.3789756,31.6480694 C77.3789756,19.0653969 69.9883659,8.20125878 59.3361707,3.11907831 C74.6112927,3.64830922 86.8759268,16.2227965 86.8759268,31.6480694 C86.8759268,47.0729758 74.6112927,59.6535715 59.3361707,60.1825581 M45.0911707,60.1928202 C55.7495854,55.1045313 63.148122,44.2465016 63.148122,31.6499019 C63.148122,19.0595328 55.7433659,8.18916417 45.082878,3.10918272 C45.3219024,3.10307433 45.5692195,3.06495798 45.8098293,3.06495798 C61.5434878,3.06495798 74.3386098,15.8929435 74.3386098,31.6499019 C74.3386098,45.2524313 64.7944634,56.6516643 52.0661707,59.5167435 C51.9314146,59.4903553 51.792878,59.4805819 51.6603171,59.4483296 L51.6199512,59.637201 C49.7384878,60.0276493 47.8000732,60.2328912 45.8098293,60.2328912 C45.5692195,60.2328912 45.3297073,60.2027157 45.0911707,60.1928202 M3.04068293,31.6480694 C3.04068293,15.8929435 15.8360488,3.06495798 31.5748293,3.06495798 C47.3060488,3.06495798 60.1073902,15.8929435 60.1073902,31.6480694 C60.1073902,47.4091816 47.3060488,60.2328912 31.5748293,60.2328912 C15.8360488,60.2328912 3.04068293,47.4091816 3.04068293,31.6480694 M58.3465366,0.0210250783 C56.242878,0.0210250783 54.1584878,0.258152778 52.1384878,0.65666414 C50.097878,0.246302501 47.9769024,0.0210250783 45.8098293,0.0210250783 C43.4825122,0.0210250783 41.1809268,0.276477948 38.9576341,0.771257537 L38.9958049,0.946323994 C36.6137317,0.36297275 34.1315366,0.0210250783 31.5748293,0.0210250783 C14.1649512,0.0210250783 -4.87804883e-05,14.2106928 -4.87804883e-05,31.6480694 C-4.87804883e-05,49.0852016 14.1649512,63.2829325 31.5748293,63.2829325 C34.0111707,63.2829325 36.372878,62.9710381 38.6539756,62.4501146 C40.9799512,62.9911958 43.3858049,63.2829325 45.8098293,63.2829325 C47.9889756,63.2829325 50.1298293,63.0515467 52.1908049,62.6312894 C54.2109268,63.0311446 56.2794634,63.2829325 58.3465366,63.2829325 C75.7540976,63.2829325 89.9169024,49.0852016 89.9169024,31.6480694 C89.9169024,14.2106928 75.7540976,0.0210250783 58.3465366,0.0210250783" id="Fill-1"></path>
            </g>
            <path d="M31.4242317,29.5359592 C27.2350854,27.7553635 25.7648415,26.5041209 25.7648415,24.0473264 C25.7648415,22.0738278 26.8492317,19.8547719 30.5569146,19.8547719 C33.6292317,19.8547719 35.5994756,20.9691866 36.6156951,21.5445969 L37.8188659,18.3660351 C36.3728902,17.5431128 34.400939,16.7723561 31.5611829,16.6820741 L31.5611829,12.0023144 L28.5347195,12.0023144 L28.5347195,16.8187799 C24.1541098,17.5431128 21.3264268,20.5809373 21.3264268,24.5744805 C21.3264268,28.7594607 24.3587439,31.0207866 29.2594756,32.9542142 C32.8181341,34.3946948 34.3842317,36.0384625 34.3842317,38.6841284 C34.3887439,41.432293 32.3841098,43.4079907 28.9703293,43.4079907 C26.283378,43.4079907 23.7726463,42.4461636 22.0953293,41.3395677 L20.941061,44.5627207 C22.625939,45.7616755 25.4595976,46.6289447 28.2453293,46.6812325 L28.2453293,51.4978202 L31.2778902,51.4978202 L31.2778902,46.4923611 C36.2343537,45.7217266 38.8749634,42.1524722 38.8749634,38.3039422 C38.8693537,34.0245263 36.3728902,31.5639447 31.4242317,29.5359592" id="Fill-4"></path>
        </g>
    </g>
</svg>