<?xml version="1.0" encoding="UTF-8"?>
<svg width="256px" height="90px" viewBox="0 0 256 90" version="1.1" xmlns="http://www.w3.org/2000/svg" xmlns:xlink="http://www.w3.org/1999/xlink">
    <!-- Generator: Sketch 49.3 (51167) - http://www.bohemiancoding.com/sketch -->
    <title>LBEL</title>
    <desc>Created with Sketch.</desc>
    <defs></defs>
    <g id="LBEL" stroke="none" stroke-width="1" fill="none" fill-rule="evenodd">
        <g id="logo_lbel" transform="translate(18.000000, 20.000000)" fill="#FFFFFF" fill-rule="nonzero">
            <polygon id="Shape" points="46.1065 47.9182 4.6365 47.9182 4.6365 2.74364444 11.946 2.74364444 11.946 41.0928222 46.1065 41.0928222"></polygon>
            <path d="M92.466,41.1096889 C98.56,41.1096889 101.6125,39.0856889 101.6125,35.0152 C101.6125,30.6579778 98.9615,28.4821778 93.61,28.4821778 L64.515,28.4821778 L64.515,41.1096889 L92.466,41.1096889 Z M93.0435,21.6286889 C95.0675,21.6286889 96.7505,21.0496 98.131,19.8689333 C99.495,18.6770222 100.1715,17.2264889 100.1715,15.5398222 C100.1715,13.7294667 99.561,12.2452 98.329,11.1657333 C97.13,10.0918889 95.447,9.55215556 93.324,9.55215556 L64.515,9.55215556 L64.515,21.6286889 L93.0435,21.6286889 Z M101.585,24.6703111 C106.612,26.4075778 109.131,30.2025778 109.131,36.0384444 C109.131,43.9657778 103.5595,47.9182 92.422,47.9182 L57.2,47.9182 L57.2,2.72677778 L92.917,2.72677778 C97.394,2.72677778 100.9195,3.87371111 103.4715,6.10011111 C106.0565,8.36586667 107.3215,11.3400222 107.3215,15.0675556 C107.327,19.2111333 105.435,22.3989333 101.585,24.6703111 Z" id="Shape"></path>
            <polygon id="Shape" points="166.694 47.9182 120.406 47.9182 120.406 2.74364444 165.5115 2.74364444 165.5115 9.55215556 127.7155 9.55215556 127.7155 21.1114444 153.626 21.1114444 153.626 27.9536889 127.7155 27.9536889 127.7155 41.0928222 166.694 41.0928222"></polygon>
            <polygon id="Shape" points="219.1805 47.9182 177.7105 47.9182 177.7105 2.74364444 185.042 2.74364444 185.042 41.0928222 219.1805 41.0928222"></polygon>
            <path d="M39.314,2.72677778 L39.314,12.7512 C39.314,16.2707111 42.163,19.1211778 45.639,19.1268 L46.1505,19.1268 L46.1505,2.72677778 L39.314,2.72677778 Z" id="Shape"></path>
        </g>
    </g>
</svg>