<?xml version="1.0" encoding="UTF-8"?>
<svg width="128px" height="128px" viewBox="0 0 128 128" version="1.1" xmlns="http://www.w3.org/2000/svg" xmlns:xlink="http://www.w3.org/1999/xlink">
    <!-- Generator: Sketch 49.3 (51167) - http://www.bohemiancoding.com/sketch -->
    <title>Pedidos</title>
    <desc>Created with Sketch.</desc>
    <defs>
        <polygon id="path-1" points="89.9363131 0 2.01833072e-05 0 2.01833072e-05 89.978393 89.9363131 89.978393"></polygon>
    </defs>
    <g id="Pedidos" stroke="none" stroke-width="1" fill="none" fill-rule="evenodd">
        <g id="Page-1" transform="translate(19.000000, 19.000000)">
            <mask id="mask-2" fill="white">
                <use xlink:href="#path-1"></use>
            </mask>
            <g id="Clip-2"></g>
            <path d="M12.5181035,35.1297549 L42.0072497,18.2556304 L42.0072497,45.6826342 L36.3358525,49.2721284 L12.5181035,35.1297549 Z M42.0072497,56.3902996 L42.0072497,86.0039183 L11.2326054,67.3114669 L11.2326054,37.6873424 L42.0072497,56.3902996 Z M45.7927219,49.7377704 L43.4452704,53.5182374 L39.0825408,50.9416226 L43.3891514,48.1741518 L45.7927219,49.7377704 Z M48.5646753,50.7820506 L55.061674,40.3463696 L83.5889961,23.9178093 L76.648401,34.1129066 L48.5646753,50.7820506 Z M53.3336274,38.0001829 C53.1322044,38.1164475 52.9581423,38.2871089 52.8342613,38.4988599 L47.3839638,47.2735681 L44.9068098,45.6282374 L44.9068098,18.237537 L66.4834075,30.4456693 L53.3336274,38.0001829 Z M76.7743777,37.652323 L76.7743777,67.2999105 L44.9068098,86.0329844 L44.9068098,56.3998716 L76.7743777,37.652323 Z M41.1613894,15.3248521 L10.2764864,33.0243852 L3.43671928,20.8169533 L34.9793325,3.44158366 L41.1613894,15.3248521 Z M89.4246753,18.5112724 C88.9835239,18.0320895 88.2166028,17.9021673 87.6363182,18.2360195 L69.3554903,28.7593658 L44.0817904,14.4962918 C44.0448823,14.4713113 44.0085563,14.4519339 43.9716481,14.4402607 L36.8739897,0.771350195 C36.6923596,0.426175097 36.3786986,0.169832685 36.0050763,0.061155642 C35.6376248,-0.0475214008 35.2408331,-0.0125019455 34.8886339,0.173801556 L0.752437257,18.9695603 C0.417702458,19.1559805 0.169358344,19.4683541 0.0533945666,19.8504163 C-0.0509262613,20.2402996 -0.00027943079,20.648393 0.187404916,20.9601829 L8.25631824,35.149716 C8.2695912,35.1883541 8.2948564,35.2311946 8.32582665,35.2659805 L8.32582665,67.3325953 L8.05116947,67.3325953 L8.12463648,67.7577315 C8.17097542,68.019677 8.35702975,68.8925953 8.79818111,69.1474202 L42.6476119,89.7474981 C42.8410013,89.8541907 43.0793325,89.978393 43.3502639,89.978393 C43.5727607,89.978393 43.8382199,89.9571479 44.0934334,89.8056304 L78.5859043,69.1489377 C78.9207555,68.9513113 79.1103027,68.4249689 79.203097,68.064035 L79.6674179,68.064035 L79.6674179,35.3822451 L89.7440414,20.3084708 C90.0887891,19.7981206 89.9628124,19.0894436 89.4246753,18.5112724 L89.4246753,18.5112724 Z" id="Fill-1" fill="#FEFEFE" mask="url(#mask-2)"></path>
        </g>
    </g>
</svg>