<?xml version="1.0" encoding="UTF-8"?>
<svg width="128px" height="128px" viewBox="0 0 128 128" version="1.1" xmlns="http://www.w3.org/2000/svg" xmlns:xlink="http://www.w3.org/1999/xlink">
    <!-- Generator: Sketch 49.3 (51167) - http://www.bohemiancoding.com/sketch -->
    <title>PEGs</title>
    <desc>Created with Sketch.</desc>
    <defs>
        <polygon id="path-1" points="88.1211143 43.8724963 88.1211143 0.00583340487 0 0.00583340487 0 43.8724963 0 87.7391592 88.1211143 87.7391592 88.1211143 43.8724963"></polygon>
    </defs>
    <g id="PEGs" stroke="none" stroke-width="1" fill="none" fill-rule="evenodd">
        <g id="Page-1" transform="translate(20.000000, 19.000000)">
            <polygon id="Fill-1" fill="#FEFEFE" points="43.8645146 52.2984508 45.9491631 17.6551689 41.5309421 17.6551689 43.3914156 52.2984508"></polygon>
            <g id="Group-11" transform="translate(0.000000, 0.113216)">
                <path d="M44.4039335,64.8696526 C44.0683286,64.8696526 43.7242348,64.9396535 43.3771521,65.0813219 C43.0123745,65.2287046 42.6908776,65.4354929 42.402977,65.7065676 C42.1154352,65.9771662 41.8752391,66.2957415 41.6898015,66.6676508 C41.5261239,66.9947977 41.4450622,67.3378972 41.4450622,67.7189733 C41.4450622,68.0771919 41.4991033,68.3754099 41.6192611,68.6323178 C41.7351148,68.9007735 41.8844452,69.0997045 42.0793281,69.2689923 C42.2807867,69.4494707 42.5187111,69.5918534 42.8041009,69.6950689 C43.0899689,69.8013797 43.3913797,69.8579281 43.6942253,69.8579281 C44.0454926,69.8579281 44.4174438,69.7830462 44.7936992,69.6436397 C45.164933,69.4968522 45.4956361,69.3028022 45.7720588,69.0523229 C46.0422645,68.8222011 46.2620158,68.5245784 46.4340626,68.1677883 C46.5928384,67.8386176 46.6694763,67.4662321 46.6694763,67.0372982 C46.6694763,66.372052 46.4903754,65.8460931 46.111968,65.3950162 C45.8127092,65.0388213 45.2560378,64.8696526 44.4039335,64.8696526" id="Fill-2" fill="#FEFEFE"></path>
                <g id="Group-6">
                    <mask id="mask-2" fill="white">
                        <use xlink:href="#path-1"></use>
                    </mask>
                    <g id="Clip-5"></g>
                    <path d="M49.4878049,69.6294133 C49.1209947,70.3948989 48.6273314,71.0510974 48.0178144,71.5857469 C47.4397418,72.0913483 46.7669775,72.4970676 46.0126734,72.7881426 C45.2423482,73.0792176 44.463056,73.2285051 43.6856767,73.2285051 C42.9766858,73.2285051 42.2875418,73.1043369 41.6257771,72.8561196 C40.9485892,72.61445 40.3485175,72.2561122 39.8244859,71.7959875 C39.2810856,71.3131245 38.8479197,70.7149028 38.5353898,70.033704 C38.2179579,69.3432194 38.0600191,68.5672575 38.0600191,67.7189137 C38.0600191,66.809855 38.2593257,65.9480587 38.66033,65.1536442 C39.0251076,64.4201828 39.5121951,63.770651 40.0946915,63.2361207 C40.6791009,62.6987331 41.3403874,62.2705136 42.0792683,61.9680099 C42.8451698,61.6522917 43.6247011,61.4921707 44.4039933,61.4921707 C46.2935198,61.4921707 47.7482066,62.0812256 48.711143,63.2361207 C49.6079627,64.3011337 50.0545194,65.577816 50.0545194,67.0373578 C50.0545194,67.9626072 49.8644189,68.842618 49.4878049,69.6294133 L49.4878049,69.6294133 Z M49.5380201,13.137173 L47.0637255,56.5900868 L40.176351,56.5900868 L37.9670014,13.137173 L49.5380201,13.137173 Z M44.0640842,0.00582149996 C19.7680536,0.00582149996 0,19.6853485 0,43.8773119 C0,68.0645132 19.7680536,87.7391592 44.0640842,87.7391592 C68.3549737,87.7391592 88.1211143,68.0645132 88.1211143,43.8773119 C88.1211143,19.6853485 68.3549737,0.00582149996 44.0640842,0.00582149996 L44.0640842,0.00582149996 Z" id="Fill-4" fill="#FEFEFE" mask="url(#mask-2)"></path>
                </g>
                <polygon id="Fill-7" fill="#FEFEFE" points="45.9491153 17.5419532 43.8644668 52.1852352 43.3913678 52.1852352 41.5310139 17.5419532"></polygon>
                <path d="M46.4341224,68.1678002 C46.2620756,68.5245903 46.0423242,68.822213 45.7721186,69.0523348 C45.4955763,69.3028141 45.1649928,69.4968641 44.7936394,69.6435326 C44.4175036,69.7830581 44.0454328,69.85794 43.694285,69.85794 C43.3914395,69.85794 43.0899091,69.8013916 42.8041607,69.6950808 C42.5187709,69.5918653 42.2808465,69.4494826 42.0792683,69.2690042 C41.8843855,69.0997164 41.735055,68.9007854 41.6193209,68.6323297 C41.4991631,68.3754218 41.4450024,68.0772038 41.4450024,67.7188661 C41.4450024,67.3379091 41.5260641,66.9946906 41.6897418,66.6675437 C41.8751793,66.2956344 42.115495,65.9771781 42.4029173,65.7065795 C42.6908178,65.4355048 43.0124342,65.2287165 43.3772119,65.0813338 C43.7242946,64.9396654 44.0683883,64.8696645 44.4039933,64.8696645 C45.255978,64.8696645 45.812769,65.0388332 46.1120277,65.3950281 C46.4904352,65.8461051 46.6695361,66.3720639 46.6695361,67.0373101 C46.6695361,67.4661249 46.5927786,67.8386295 46.4341224,68.1678002" id="Fill-9" fill="#FEFEFE"></path>
            </g>
        </g>
    </g>
</svg>