<?xml version="1.0" encoding="UTF-8"?>
<svg width="128px" height="128px" viewBox="0 0 128 128" version="1.1" xmlns="http://www.w3.org/2000/svg" xmlns:xlink="http://www.w3.org/1999/xlink">
    <!-- Generator: Sketch 49.3 (51167) - http://www.bohemiancoding.com/sketch -->
    <title>Tus Pedidos y VTA</title>
    <desc>Created with Sketch.</desc>
    <defs>
        <polygon id="path-1" points="43.190568 42.9807813 43.190568 0.0723218707 0.105652415 0.0723218707 0.105652415 42.9807813 43.190568 42.9807813"></polygon>
    </defs>
    <g id="Tus-Pedidos-y-VTA" stroke="none" stroke-width="1" fill="none" fill-rule="evenodd">
        <g id="Page-1" transform="translate(18.000000, 19.000000)">
            <path d="M1.2431158e-05,48.6117607 C1.2431158e-05,25.837304 18.6111969,7.30559835 41.4831609,7.30559835 C42.3706213,7.30559835 43.0915041,8.0238652 43.0915041,8.9098762 C43.0915041,9.789326 42.3706213,10.5115543 41.4831609,10.5115543 C20.3867392,10.5115543 3.21707191,27.6061073 3.21707191,48.6117607 C3.21707191,69.6275653 20.3867392,86.7216231 41.4831609,86.7216231 C62.5813229,86.7216231 79.7441531,69.6275653 79.7441531,48.6117607 C79.7441531,47.7303301 80.4675222,47.0123109 81.3502587,47.0123109 C82.2428159,47.0123109 82.9614612,47.7303301 82.9614612,48.6117607 C82.9614612,71.3935213 64.3591028,89.9277029 41.4831609,89.9277029 C18.6111969,89.9277029 1.2431158e-05,71.3935213 1.2431158e-05,48.6117607 Z" id="Fill-1" fill="#FEFEFE"></path>
            <g id="Group-5" transform="translate(48.108583, 0.051499)">
                <mask id="mask-2" fill="white">
                    <use xlink:href="#path-1"></use>
                </mask>
                <g id="Clip-4"></g>
                <path d="M3.32072291,39.7790344 L39.9414238,39.7790344 C39.1200971,20.0326382 23.1427022,4.12801651 3.32072291,3.30749381 L3.32072291,39.7790344 Z M43.1906799,42.9807813 L0.105652415,42.9807813 L0.105652415,0.0723218707 L1.71237964,0.0723218707 C24.5792469,0.0723218707 43.1906799,18.6014278 43.1906799,41.376132 L43.1906799,42.9807813 Z" id="Fill-3" fill="#FEFEFE" mask="url(#mask-2)"></path>
            </g>
        </g>
    </g>
</svg>