<?xml version="1.0" encoding="UTF-8"?>
<svg width="128px" height="128px" viewBox="0 0 128 128" version="1.1" xmlns="http://www.w3.org/2000/svg" xmlns:xlink="http://www.w3.org/1999/xlink">
    <!-- Generator: Sketch 49.3 (51167) - http://www.bohemiancoding.com/sketch -->
    <title>Unete</title>
    <desc>Created with Sketch.</desc>
    <defs></defs>
    <g id="Unete" stroke="none" stroke-width="1" fill="none" fill-rule="evenodd">
        <g id="Group-10" transform="translate(20.000000, 19.000000)" stroke="#FFFFFF" stroke-width="2.41411765">
            <polyline id="Stroke-1" stroke-linecap="round" stroke-linejoin="round" points="54.9553217 63.7014575 60.1214405 67.2181497 68.9603452 60.2355542"></polyline>
            <path d="M43.4731091,8.63798634 L43.7312364,8.49670877 L43.8778997,8.24318327 C46.7544547,3.24718267 61.1166972,-1.67237322 71.6568956,4.20322539 C96.2239666,17.8945701 84.267979,58.3754318 81.4774664,65.9511995 C80.9152573,65.7054153 80.3471817,65.4673722 79.7742173,65.2428764 L78.825795,64.8722647 C74.3584326,63.1324217 67.9815148,60.8594011 66.7720319,57.6138876 C66.1775569,56.0162899 66.3427975,54.6886679 66.6077691,53.7993933 C70.4366575,50.623551 75.9228405,42.9297294 76.6473569,38.0827476 C78.0836789,37.7527774 79.4916461,36.291619 80.2846053,34.2411589 C81.4012015,31.3623865 80.8898357,28.6084416 79.1015218,27.8362532 C78.4131824,27.5333773 77.6065345,27.5769218 76.8321526,27.95721 L76.8321526,26.6470057 C76.8321526,19.9169681 68.3178625,19.6769898 60.8057712,19.4650734 C50.7544502,19.1815507 48.3775279,16.8214411 45.6495916,12.9711436 L44.7627679,11.7141603 L43.9346094,13.0079144 C41.8635808,16.2328639 41.3690746,21.2103596 41.3401817,25.0038422 C41.3386754,25.2016103 41.3384347,25.3961603 41.339302,25.5870762 C41.3406637,25.8868245 37.9042539,23.7633054 35.3474305,23.2156273 C35.2844969,23.2021468 35.3875363,23.0641473 35.4077689,22.9887483 C37.4421089,15.4075767 40.6826188,10.1298741 43.4731091,8.63798634 Z" id="Stroke-3" stroke-linecap="round" stroke-linejoin="round"></path>
            <polyline id="Stroke-1" stroke-linecap="round" stroke-linejoin="round" points="18.2748071 81.1006061 28.5324343 88.0832016 37.3713391 81.1006061"></polyline>
            <path d="M19.5781886,0 L19.5781886,15.6521621" id="Path-7"></path>
            <path d="M27.2899987,7.30276817 L11.8580269,7.57593606" id="Path-7"></path>
            <path d="M11.8841029,29.5030382 L12.1422302,29.3617607 L12.2888935,29.1082352 C15.1654485,24.1122346 29.527691,19.1926787 40.0678894,25.0682773 C64.6349604,38.759622 52.6789728,79.2404837 49.8884602,86.8162514 C49.3262511,86.5704672 48.7581755,86.3324241 48.1852111,86.1079283 L47.2367888,85.7373166 C42.7694264,83.9974736 36.3925086,81.724453 35.1830257,78.4789396 C34.5885507,76.8813418 34.7537913,75.5537198 35.0187629,74.6644452 C38.8476513,71.4886029 44.3338343,63.7947813 45.0583507,58.9477995 C46.4946728,58.6178293 47.9026399,57.1566709 48.6955992,55.1062108 C49.8121953,52.2274384 49.3008295,49.4734935 47.5125157,48.7013051 C46.8241762,48.3984292 46.0175283,48.4419737 45.2431464,48.822262 L45.2431464,47.5120577 C45.2431464,40.78202 36.7288563,40.5420417 29.216765,40.3301253 C19.165444,40.0466026 16.7885218,37.686493 14.0605854,33.8361955 L13.1737617,32.5792122 L12.3456032,33.8729663 C9.68904304,38.0096897 9.62646672,45.0300236 9.81321792,48.7361407 C9.11021211,48.4400384 8.35636304,48.4235883 7.72864436,48.7003375 C5.93348626,49.4763964 5.42212042,52.2303414 6.54164985,55.1062108 C7.33363136,57.1576385 8.743554,58.6207322 10.179876,58.9487671 C10.921992,63.815102 17.4651282,71.1983065 21.4269913,74.4002755 C21.778983,75.2750352 21.8161377,75.8720781 21.2558841,77.3777486 C20.8442493,78.4866808 19.7491638,79.6110954 18.3069752,80.6813214 C15.5340622,82.7395227 11.4812679,84.5916135 8.54311424,85.7344136 L7.58686989,86.1088959 C7.50571623,86.1398609 7.42945134,86.1746964 7.34829768,86.206629 C-4.3427183,59.1297185 5.10043904,33.1298076 11.8841029,29.5030382 Z" id="Stroke-3" stroke-linecap="round" stroke-linejoin="round"></path>
        </g>
    </g>
</svg>