<?xml version="1.0" encoding="UTF-8"?>
<svg width="128px" height="128px" viewBox="0 0 128 128" version="1.1" xmlns="http://www.w3.org/2000/svg" xmlns:xlink="http://www.w3.org/1999/xlink">
    <!-- Generator: Sketch 49.3 (51167) - http://www.bohemiancoding.com/sketch -->
    <title>Venta Neta</title>
    <desc>Created with Sketch.</desc>
    <defs></defs>
    <g id="Venta-Neta" stroke="none" stroke-width="1" fill="none" fill-rule="evenodd">
        <path d="M64.1152081,19 L20,36.4493222 L20,91.6995912 L64.0917924,109 L108.2,91.6995912 L108.2,36.1467851 L108.10682,36.1911089 L64.1152081,19 Z M25.2387232,38.2418391 L64.0753773,22.8037542 L78.3570326,27.9178983 L38.41296,43.4420946 L25.2387232,38.2418391 Z M48.6235397,47.4714532 L87.5928426,31.663319 L103.349447,38.0789159 L64.0961376,53.5818561 L48.6235397,47.4714532 Z M65.8740422,56.6848837 L104.649864,41.3842388 L104.649864,89.2930631 L65.8740422,104.598297 L65.8740422,56.6848837 Z M46.155475,98.0498498 L37.9288341,94.9702522 L23.5453083,89.304295 L23.5453083,41.3888282 L37.4989022,46.8919831 L37.4989022,58.9731749 L45.0736448,62.2089324 L45.0736448,49.8831747 L62.3305444,56.6872992 L62.3305444,104.598297 L46.155475,98.0498498 Z" id="Page-1-Copy" fill="#FEFEFE"></path>
    </g>
</svg>